<?xml version="1.0" encoding="UTF-8" standalone="no"?>
<!-- Created with Inkscape (http://www.inkscape.org/) -->

<svg
   width="50mm"
   height="50mm"
   viewBox="0 0 50 50"
   version="1.1"
   id="svg1"
   inkscape:version="1.4.3 (0d15f75042, 2025-12-25)"
   sodipodi:docname="ulsbs-tex-tools-action-icon-simple-bw.svg"
   xmlns:inkscape="http://www.inkscape.org/namespaces/inkscape"
   xmlns:sodipodi="http://sodipodi.sourceforge.net/DTD/sodipodi-0.dtd"
   xmlns="http://www.w3.org/2000/svg"
   xmlns:svg="http://www.w3.org/2000/svg"
   xmlns:rdf="http://www.w3.org/1999/02/22-rdf-syntax-ns#"
   xmlns:cc="http://creativecommons.org/ns#"
   xmlns:dc="http://purl.org/dc/elements/1.1/">
  <title
     id="title1">ULSBS Tex Tools: action icon</title>
  <sodipodi:namedview
     id="namedview1"
     pagecolor="#ffffff"
     bordercolor="#000000"
     borderopacity="0.25"
     inkscape:showpageshadow="2"
     inkscape:pageopacity="0.0"
     inkscape:pagecheckerboard="0"
     inkscape:deskcolor="#d1d1d1"
     inkscape:document-units="mm"
     inkscape:zoom="3.0639707"
     inkscape:cx="110.15118"
     inkscape:cy="92.363808"
     inkscape:window-width="1837"
     inkscape:window-height="1224"
     inkscape:window-x="0"
     inkscape:window-y="0"
     inkscape:window-maximized="0"
     inkscape:current-layer="layer1" />
  <defs
     id="defs1" />
  <g
     inkscape:label="Layer 1"
     inkscape:groupmode="layer"
     id="layer1">
    <path
       style="font-weight:300;font-size:35.9833px;font-family:Ubuntu;-inkscape-font-specification:'Ubuntu, Light';text-align:end;text-anchor:end;fill:#08000f;stroke-width:0.5"
       d="m 9.2733726,24.982037 q 0.5757327,0.32385 1.0435154,0.791632 0.467783,0.4318 0.791633,1.115483 0.32385,0.683682 0.467783,1.655231 0.179916,0.97155 0.179916,2.302932 v 3.850213 q 0,1.691215 0.07197,2.806697 0.07197,1.151466 0.431799,1.835148 0.395817,0.719666 1.187449,1.007533 0.791633,0.287866 2.266948,0.287866 v 1.799165 h -0.287866 q -1.727199,0 -2.878664,-0.395816 -1.151466,-0.395817 -1.835148,-1.151466 -0.6477,-0.755649 -0.9355663,-1.871131 -0.2518831,-1.115483 -0.2518831,-2.590798 v -6.98076 q 0,-0.647699 -0.2158997,-1.259416 Q 9.1294394,27.536851 8.6976398,27.033085 8.2658402,26.529319 7.6181408,26.205469 6.9704414,25.881619 6.0708589,25.881619 v -1.763181 q 0.8995825,0 1.5472819,-0.32385 0.6476994,-0.32385 1.079499,-0.827616 0.4317996,-0.503766 0.6117161,-1.115482 0.2158997,-0.6477 0.2158997,-1.295399 v -6.98076 q 0,-1.439332 0.2518831,-2.554814 Q 10.065005,9.8690512 10.712705,9.1134019 11.396387,8.3577526 12.547853,7.9619363 13.699318,7.56612 15.426517,7.56612 h 0.287866 v 1.799165 q -1.475315,0 -2.266948,0.2878664 -0.791632,0.2878664 -1.187449,1.0075326 -0.359833,0.683682 -0.431799,1.835148 -0.07197,1.115482 -0.07197,2.806697 v 3.850213 q 0,1.331382 -0.179916,2.302932 -0.143933,0.935565 -0.467783,1.619248 -0.32385,0.683683 -0.791633,1.151466 -0.4677827,0.431799 -1.0435154,0.755649 z"
       id="text5"
       inkscape:label="left_bracket"
       aria-label="{" />
    <path
       style="font-weight:300;font-size:35.9833px;font-family:Ubuntu;-inkscape-font-specification:'Ubuntu, Light';text-align:end;text-anchor:end;fill:#08000f;stroke-width:0.5"
       d="m 40.726686,24.982037 q -0.575733,-0.32385 -1.043516,-0.755649 -0.467783,-0.467783 -0.791633,-1.151466 -0.323849,-0.683683 -0.503766,-1.619248 -0.143933,-0.97155 -0.143933,-2.302932 v -3.850213 q 0,-1.691215 -0.07197,-2.806697 -0.07197,-1.151466 -0.467782,-1.835148 Q 37.344256,9.9410178 36.552623,9.6531514 35.76099,9.365285 34.285675,9.365285 V 7.56612 h 0.287867 q 1.727198,0 2.878664,0.3958163 1.151465,0.3958163 1.799164,1.1514656 0.683683,0.7556493 0.935566,1.9071151 0.287867,1.115482 0.287867,2.554814 v 6.98076 q 0,0.647699 0.179916,1.295399 0.2159,0.611716 0.6477,1.115482 0.431799,0.503766 1.079498,0.827616 0.6477,0.32385 1.547282,0.32385 v 1.763181 q -0.899582,0 -1.547282,0.32385 -0.647699,0.32385 -1.079498,0.827616 -0.4318,0.503766 -0.6477,1.151465 -0.179916,0.611717 -0.179916,1.259416 v 6.98076 q 0,1.475315 -0.287867,2.590798 -0.251883,1.115482 -0.935566,1.871131 -0.647699,0.755649 -1.799164,1.151466 -1.151466,0.395816 -2.878664,0.395816 h -0.287867 v -1.799165 q 1.475315,0 2.266948,-0.287866 0.791633,-0.287867 1.151466,-1.007533 0.395816,-0.683682 0.467782,-1.835148 0.07197,-1.115482 0.07197,-2.806697 v -3.850213 q 0,-1.331382 0.143933,-2.302932 0.179917,-0.971549 0.503766,-1.655231 0.32385,-0.683683 0.791633,-1.115483 0.467783,-0.467782 1.043516,-0.791632 z"
       id="text6"
       inkscape:label="right_bracket"
       aria-label="}" />
    <path
       style="font-size:32.4556px;font-family:Ubuntu;-inkscape-font-specification:'Ubuntu, Normal';text-align:end;text-anchor:end;fill:#08000f;stroke-width:0.5"
       d="m 21.179514,13.89506 10.950596,3.201187 0.04754,0.06339 v 15.823352 c 0,1.637571 -1.014237,2.678221 -3.042712,3.12195 h -0.855761 c -2.250339,0 -3.375509,-0.866328 -3.375509,-2.598984 v -0.06339 c 0,-1.331187 0.935,-2.112995 2.805,-2.345424 l 0.618051,-0.04754 c 0.908588,0 1.790763,0.306384 2.646526,0.919152 V 20.329129 l -8.684409,-2.678221 v 12.051656 c 0,1.447402 -0.792373,2.466922 -2.377119,3.058561 l -1.06178,0.126779 h -0.412034 c -2.282034,0 -3.423051,-0.818785 -3.423051,-2.456356 v -0.110933 c 0,-1.288927 0.898023,-2.112994 2.694068,-2.472203 l 0.681441,-0.06339 c 0.940283,0 1.833023,0.353927 2.678221,1.06178 V 14.037687 Z"
       id="text12"
       inkscape:label="mus_note"
       aria-label="♫"
       sodipodi:nodetypes="cccscssscccccsccsssccccc" />
  </g>
  <metadata
     id="metadata1">
    <rdf:RDF>
      <cc:Work
         rdf:about="">
        <dc:title>ULSBS Tex Tools: action icon</dc:title>
        <dc:date>2026</dc:date>
        <dc:creator>
          <cc:Agent>
            <dc:title>Lari Natri</dc:title>
          </cc:Agent>
        </dc:creator>
        <cc:license
           rdf:resource="http://creativecommons.org/licenses/by-nc-sa/4.0/" />
        <dc:subject>
          <rdf:Bag>
            <rdf:li>ULSBS</rdf:li>
            <rdf:li>VS Code Extension</rdf:li>
          </rdf:Bag>
        </dc:subject>
      </cc:Work>
      <cc:License
         rdf:about="http://creativecommons.org/licenses/by-nc-sa/4.0/">
        <cc:permits
           rdf:resource="http://creativecommons.org/ns#Reproduction" />
        <cc:permits
           rdf:resource="http://creativecommons.org/ns#Distribution" />
        <cc:requires
           rdf:resource="http://creativecommons.org/ns#Notice" />
        <cc:requires
           rdf:resource="http://creativecommons.org/ns#Attribution" />
        <cc:prohibits
           rdf:resource="http://creativecommons.org/ns#CommercialUse" />
        <cc:permits
           rdf:resource="http://creativecommons.org/ns#DerivativeWorks" />
        <cc:requires
           rdf:resource="http://creativecommons.org/ns#ShareAlike" />
      </cc:License>
    </rdf:RDF>
  </metadata>
</svg>
